<?xml version="1.0" encoding="iso-8859-1"?>
<!-- Generator: Adobe Illustrator 19.0.0, SVG Export Plug-In . SVG Version: 6.00 Build 0)  -->
<svg version="1.1" id="Capa_1" xmlns="http://www.w3.org/2000/svg" xmlns:xlink="http://www.w3.org/1999/xlink" x="0px" y="0px"
	 viewBox="0 0 468.293 468.293" style="enable-background:new 0 0 468.293 468.293;" xml:space="preserve">
<path style="fill:#D5D6DB;" d="M448.144,160.03L295.727,7.613c-10.151-10.151-26.575-10.151-36.726,0L26.83,239.785h319.006v25.091
	h34.189l68.12-68.12C458.295,186.605,458.295,170.181,448.144,160.03z"/>
<polygon style="fill:#2F4859;" points="186.508,239.785 357.204,69.089 325.838,37.724 123.777,239.785 "/>
<path style="fill:#2E9AE1;" d="M402.342,226.774v215.55c0,14.355-11.613,25.969-25.969,25.969H38.505
	c-14.356,0-25.969-11.614-25.969-25.969v-215.55c0-14.356,11.613-25.969,25.969-25.969h337.868
	C390.729,200.805,402.342,212.418,402.342,226.774z"/>
<g>
	<rect x="34.042" y="400.172" style="fill:#64798A;" width="39.892" height="21.504"/>
	<rect x="95.444" y="400.172" style="fill:#64798A;" width="39.842" height="21.504"/>
	<rect x="156.791" y="400.172" style="fill:#64798A;" width="39.892" height="21.504"/>
	<rect x="218.193" y="400.172" style="fill:#64798A;" width="39.892" height="21.504"/>
	<rect x="279.602" y="400.172" style="fill:#64798A;" width="39.842" height="21.504"/>
	<rect x="340.917" y="400.172" style="fill:#64798A;" width="39.892" height="21.504"/>
</g>
<circle style="fill:#FCD462;" cx="345.712" cy="347.785" r="21.679"/>
<circle style="fill:#E56353;" cx="315.142" cy="347.785" r="21.679"/>
<g>
	<path style="fill:#EBF0F3;" d="M80.445,280.363l10.724,3.4c-1.644,5.979-4.378,10.419-8.202,13.321
		c-3.824,2.902-8.675,4.353-14.555,4.353c-7.274,0-13.253-2.485-17.936-7.455c-4.683-4.97-7.025-11.764-7.025-20.384
		c0-9.118,2.354-16.199,7.062-21.243s10.899-7.567,18.572-7.567c6.701,0,12.144,1.98,16.33,5.941
		c2.491,2.342,4.36,5.705,5.605,10.089l-10.949,2.616c-0.648-2.84-1.999-5.082-4.054-6.726c-2.055-1.644-4.553-2.466-7.492-2.466
		c-4.061,0-7.355,1.457-9.884,4.372c-2.529,2.915-3.793,7.635-3.793,14.162c0,6.925,1.246,11.858,3.737,14.798
		c2.491,2.94,5.73,4.409,9.716,4.409c2.94,0,5.468-0.934,7.586-2.803S79.523,284.374,80.445,280.363z"/>
	<path style="fill:#EBF0F3;" d="M150.06,300.504h-12.032l-4.783-12.443h-21.897l-4.521,12.443H95.093l21.337-54.781h11.696
		L150.06,300.504z M129.695,278.831l-7.548-20.328l-7.399,20.328H129.695z"/>
	<path style="fill:#EBF0F3;" d="M155.964,300.504v-54.781h23.28c5.854,0,10.108,0.492,12.761,1.476
		c2.653,0.984,4.777,2.734,6.371,5.25s2.392,5.393,2.392,8.632c0,4.11-1.208,7.505-3.625,10.183
		c-2.416,2.678-6.029,4.366-10.837,5.063c2.392,1.395,4.366,2.927,5.923,4.596s3.656,4.634,6.296,8.893l6.689,10.687h-13.228
		l-7.997-11.92c-2.84-4.26-4.783-6.944-5.829-8.053c-1.046-1.109-2.155-1.868-3.326-2.279c-1.171-0.411-3.027-0.617-5.568-0.617
		h-2.242v22.869H155.964z M167.025,268.891h8.183c5.306,0,8.619-0.224,9.94-0.673c1.32-0.448,2.354-1.221,3.102-2.317
		c0.747-1.096,1.121-2.466,1.121-4.11c0-1.843-0.492-3.332-1.476-4.465c-0.984-1.133-2.373-1.85-4.166-2.149
		c-0.897-0.125-3.587-0.187-8.071-0.187h-8.632V268.891z"/>
	<path style="fill:#EBF0F3;" d="M211.156,245.723h20.216c4.559,0,8.034,0.349,10.426,1.046c3.214,0.947,5.966,2.628,8.258,5.045
		c2.292,2.416,4.036,5.375,5.231,8.875c1.196,3.5,1.794,7.816,1.794,12.948c0,4.509-0.56,8.395-1.682,11.659
		c-1.37,3.986-3.326,7.212-5.867,9.678c-1.918,1.868-4.509,3.326-7.772,4.372c-2.441,0.772-5.705,1.158-9.79,1.158h-20.814V245.723z
		 M222.217,254.99v36.284h8.258c3.089,0,5.319-0.174,6.689-0.523c1.794-0.448,3.282-1.208,4.465-2.279
		c1.183-1.071,2.149-2.834,2.896-5.287s1.121-5.798,1.121-10.033s-0.374-7.486-1.121-9.753s-1.794-4.036-3.139-5.306
		c-1.345-1.27-3.052-2.13-5.119-2.578c-1.545-0.349-4.571-0.523-9.08-0.523H222.217z"/>
</g>
<g>
</g>
<g>
</g>
<g>
</g>
<g>
</g>
<g>
</g>
<g>
</g>
<g>
</g>
<g>
</g>
<g>
</g>
<g>
</g>
<g>
</g>
<g>
</g>
<g>
</g>
<g>
</g>
<g>
</g>
</svg>
